<?xml version="1.0" encoding="iso-8859-1"?>
<!-- Generator: Adobe Illustrator 19.0.0, SVG Export Plug-In . SVG Version: 6.00 Build 0)  -->
<svg version="1.1" id="Capa_1" xmlns="http://www.w3.org/2000/svg" xmlns:xlink="http://www.w3.org/1999/xlink" x="0px" y="0px"
	 viewBox="0 0 512 512" style="enable-background:new 0 0 512 512;" xml:space="preserve">
<path style="fill:#FF3947;" d="M425.932,284.821c0-93.7-76.231-169.932-169.932-169.932l-20.016,352.815h189.948V284.821z"/>
<g>
	
		<rect x="122.747" y="42.99" transform="matrix(-0.3827 -0.9239 0.9239 -0.3827 170.4853 229.8952)" style="fill:#FFC813;" width="78.602" height="30.001"/>
	
		<rect x="334.965" y="18.695" transform="matrix(-0.9239 -0.3827 0.3827 -0.9239 651.0963 245.5051)" style="fill:#FFC813;" width="30.001" height="78.602"/>
	
		<rect x="43.092" y="96.21" transform="matrix(-0.7071 -0.7071 0.7071 -0.7071 62.0138 248.1061)" style="fill:#FFC813;" width="78.599" height="30"/>
	
		<rect x="414.61" y="71.905" transform="matrix(-0.7071 -0.7071 0.7071 -0.7071 654.7565 493.6181)" style="fill:#FFC813;" width="30" height="78.599"/>
</g>
<path style="fill:#FC707B;" d="M86.068,284.821v182.884H256V114.89C162.299,114.89,86.068,191.121,86.068,284.821z"/>
<path style="fill:#E0E3E6;" d="M475.67,472.587c0-13.742-11.14-24.882-24.882-24.882H256l-20.016,32.148L256,512h219.67
	L475.67,472.587L475.67,472.587z"/>
<path style="fill:#F5F5F6;" d="M61.212,447.705c-13.742,0-24.882,11.14-24.882,24.882V512H256v-64.295L61.212,447.705
	L61.212,447.705z"/>
<rect x="241" style="fill:#FFC813;" width="30" height="78.6"/>
<g>
</g>
<g>
</g>
<g>
</g>
<g>
</g>
<g>
</g>
<g>
</g>
<g>
</g>
<g>
</g>
<g>
</g>
<g>
</g>
<g>
</g>
<g>
</g>
<g>
</g>
<g>
</g>
<g>
</g>
</svg>
