<?xml version="1.0" encoding="iso-8859-1"?>
<!-- Generator: Adobe Illustrator 19.0.0, SVG Export Plug-In . SVG Version: 6.00 Build 0)  -->
<svg version="1.1" id="Capa_1" xmlns="http://www.w3.org/2000/svg" xmlns:xlink="http://www.w3.org/1999/xlink" x="0px" y="0px"
	 viewBox="0 0 512 512" style="enable-background:new 0 0 512 512;" xml:space="preserve">
<g>
	<g>
		<path d="M445.081,419.588H416.54v-143.11c0-88.522-72.018-160.54-160.54-160.54S95.46,187.955,95.46,276.477v143.11H66.919
			c-21.59,0-39.153,17.563-39.153,39.153V512h456.469v-53.259C484.234,437.152,466.671,419.588,445.081,419.588z M125.461,276.477
			c0-71.98,58.559-130.539,130.539-130.539s130.539,58.559,130.539,130.539v143.11H125.461V276.477z M454.234,481.999H57.766
			v-23.259c0-5.047,4.106-9.152,9.152-9.152H95.46h321.08h28.542c5.046,0,9.152,4.105,9.152,9.152V481.999z"/>
	</g>
</g>
<g>
	<g>
		<rect x="149.79" y="18.142" transform="matrix(0.9239 -0.3827 0.3827 0.9239 -8.9966 67.3486)" width="30.001" height="76.294"/>
	</g>
</g>
<g>
	<g>
		<rect x="240.996" width="30.001" height="76.292"/>
	</g>
</g>
<g>
	<g>
		
			<rect x="309.067" y="41.296" transform="matrix(0.3827 -0.9239 0.9239 0.3827 162.3274 355.5352)" width="76.294" height="30.001"/>
	</g>
</g>
<g>
	<g>
		<rect x="72.474" y="69.802" transform="matrix(0.7071 -0.7071 0.7071 0.7071 -50.7099 93.4707)" width="30" height="76.291"/>
	</g>
</g>
<g>
	<g>
		<rect x="386.375" y="92.943" transform="matrix(0.7071 -0.7071 0.7071 0.7071 48.0116 331.7976)" width="76.291" height="30"/>
	</g>
</g>
<g>
</g>
<g>
</g>
<g>
</g>
<g>
</g>
<g>
</g>
<g>
</g>
<g>
</g>
<g>
</g>
<g>
</g>
<g>
</g>
<g>
</g>
<g>
</g>
<g>
</g>
<g>
</g>
<g>
</g>
</svg>
